<?xml version="1.0" encoding="UTF-8" standalone="no"?>
<!-- Created with Inkscape (http://www.inkscape.org/) -->

<svg
   xmlns:dc="http://purl.org/dc/elements/1.1/"
   xmlns:cc="http://creativecommons.org/ns#"
   xmlns:rdf="http://www.w3.org/1999/02/22-rdf-syntax-ns#"
   xmlns:svg="http://www.w3.org/2000/svg"
   xmlns="http://www.w3.org/2000/svg"
   xmlns:sodipodi="http://sodipodi.sourceforge.net/DTD/sodipodi-0.dtd"
   xmlns:inkscape="http://www.inkscape.org/namespaces/inkscape"
   id="svg2"
   version="1.1"
   inkscape:version="0.91 r"
   width="213.84838"
   height="120.93587"
   xml:space="preserve"
   sodipodi:docname="uniform_under_curve.svg"><metadata
     id="metadata8"><rdf:RDF><cc:Work
         rdf:about=""><dc:format>image/svg+xml</dc:format><dc:type
           rdf:resource="http://purl.org/dc/dcmitype/StillImage" /><dc:title /></cc:Work></rdf:RDF></metadata><defs
     id="defs6"><clipPath
       clipPathUnits="userSpaceOnUse"
       id="clipPath18"><path
         d="m 0,96.749 172,0 0,-84 -172,0 0,84 z"
         id="path20" /></clipPath><clipPath
       clipPathUnits="userSpaceOnUse"
       id="clipPath28"><path
         d="m 0,13 172,0 0,84 L 0,97 0,13 z"
         id="path30" /></clipPath><clipPath
       clipPathUnits="userSpaceOnUse"
       id="clipPath38"><path
         d="M 0,97 172,97 172,13 0,13 0,97 z"
         id="path40" /></clipPath><clipPath
       clipPathUnits="userSpaceOnUse"
       id="clipPath48"><path
         d="m 0,13 172,0 0,84 L 0,97 0,13 z"
         id="path50" /></clipPath></defs><sodipodi:namedview
     pagecolor="#ffffff"
     bordercolor="#666666"
     borderopacity="1"
     objecttolerance="10"
     gridtolerance="10"
     guidetolerance="10"
     inkscape:pageopacity="0"
     inkscape:pageshadow="2"
     inkscape:window-width="1920"
     inkscape:window-height="1097"
     id="namedview4"
     showgrid="false"
     inkscape:zoom="8.0524344"
     inkscape:cx="104.99931"
     inkscape:cy="43.413911"
     inkscape:window-x="0"
     inkscape:window-y="34"
     inkscape:window-maximized="1"
     inkscape:current-layer="g46" /><g
     id="g10"
     inkscape:groupmode="layer"
     inkscape:label="uniform_under_curve"
     transform="matrix(1.25,0,0,-1.25,0,120.93587)"><g
       id="g12" /><g
       id="g14"><g
         id="g16"
         clip-path="url(#clipPath18)"><g
           id="g22"
           transform="translate(0,-0.251305)"><g
             id="g24"><g
               id="g26"
               clip-path="url(#clipPath28)"><g
                 id="g32" /><g
                 id="g34"><g
                   id="g36"
                   clip-path="url(#clipPath38)"><g
                     id="g42"><g
                       id="g44"><g
                         id="g46"
                         clip-path="url(#clipPath48)"><g
                           id="g52"><path
                             d="m 0.5,25.449 c 1.156,0.067 2.312,0.196 3.473,0.391 1.156,0.191 2.312,0.453 3.468,0.906 1.157,0.453 2.317,0.973 3.473,1.754 1.156,0.777 2.313,1.684 3.469,2.918 1.156,1.234 2.316,2.789 3.472,4.734 1.157,1.95 2.313,4.153 3.469,6.813 1.16,2.66 2.317,5.711 3.473,9.019 1.156,3.309 2.312,7.008 3.473,10.77 1.156,3.766 2.312,7.723 3.468,11.484 1.157,3.762 2.317,7.399 3.473,10.574 1.156,3.18 2.312,5.907 3.469,7.918 1.16,2.012 2.316,3.243 3.472,3.696 1.157,0.457 2.313,0 3.469,-1.231 1.16,-1.234 2.317,-3.308 3.473,-5.968 1.156,-2.661 2.312,-5.907 3.472,-9.473 1.157,-3.57 2.313,-7.461 3.469,-11.289 1.156,-3.828 2.317,-7.656 3.473,-11.227 1.156,-3.566 2.312,-6.875 3.469,-9.859 1.16,-2.984 2.316,-5.582 3.472,-7.785 1.156,-2.207 2.313,-3.957 3.469,-5.321 1.16,-1.363 2.316,-2.402 3.473,-3.113 1.156,-0.715 2.312,-1.105 3.472,-1.168 1.157,-0.066 2.313,0.063 3.469,0.516 1.156,0.457 2.316,1.105 3.473,2.012 1.156,0.91 2.312,2.078 3.468,3.441 1.161,1.359 2.317,2.984 3.473,4.801 1.156,1.816 2.313,3.89 3.473,6.031 1.156,2.141 2.312,4.414 3.469,6.75 1.156,2.336 2.312,4.734 3.472,7.008 1.156,2.269 2.313,4.476 3.469,6.484 1.156,2.012 2.316,3.766 3.473,5.129 1.156,1.359 2.312,2.398 3.468,2.984 1.16,0.582 2.317,0.778 3.473,0.454 1.156,-0.325 2.312,-1.04 3.473,-2.207 1.156,-1.168 2.312,-2.661 3.468,-4.477 1.157,-1.816 2.313,-3.891 3.473,-6.098 1.156,-2.207 2.313,-4.605 3.469,-6.941 1.156,-2.336 2.316,-4.672 3.472,-6.945 1.157,-2.27 2.313,-4.411 3.469,-6.356 1.16,-1.945 2.317,-3.766 3.473,-5.32 1.156,-1.559 2.312,-2.985 3.472,-4.153 1.157,-1.167 2.313,-2.14 3.469,-2.984 1.157,-0.844 2.313,-1.492 3.473,-2.078 1.156,-0.582 2.312,-0.973 3.469,-1.297 1.156,-0.324 2.316,-0.582 3.472,-0.777 1.157,-0.196 2.313,-0.391 3.469,-0.453 l 6.945,-0.391 c 1.157,-0.066 2.313,-0.066 3.469,-0.066"
                             style="fill:none;stroke:#ff0000;stroke-opacity:1;stroke-width:0.8;stroke-linecap:round;stroke-linejoin:round;stroke-miterlimit:10;stroke-dasharray:none"
                             id="path54" /><path
                             d="m 0.5,25.059 170.078,0"
                             style="fill:none;stroke:#000000;stroke-opacity:1;stroke-width:1;stroke-linecap:round;stroke-linejoin:round;stroke-miterlimit:10;stroke-dasharray:none"
                             id="path56" /><path
                             d="m 50.105,25.059 0,61.695"
                             style="fill:#0000ff;stroke:#0000ff;stroke-opacity:1;stroke-width:1;stroke-linecap:round;stroke-linejoin:round;stroke-miterlimit:10;stroke-dasharray:none"
                             id="path58" /><text
                             transform="matrix(1,0,0,-1,15.27743,89.404812)"
                             id="text60"><tspan
                               style="fill:#000000;fill-opacity:1;fill-rule:nonzero;stroke:none;font-family:cmmi10;font-variant:normal;font-weight:normal;font-size:9.9626;writing-mode:lr;-inkscape-font-specification:Cmmi10"
                               x="0"
                               y="0"
                               id="tspan62">p</tspan></text>
<text
                             transform="matrix(1,0,0,-1,20.278655,89.404812)"
                             id="text64"><tspan
                               style="fill:#000000;fill-opacity:1;fill-rule:nonzero;stroke:none;font-family:cmr10;font-variant:normal;font-weight:normal;font-size:9.9626;writing-mode:lr;-inkscape-font-specification:Cmr10"
                               x="0"
                               y="0"
                               id="tspan66">(</tspan></text>
<text
                             transform="matrix(1,0,0,-1,24.144144,89.404812)"
                             id="text68"><tspan
                               style="font-variant:normal;font-weight:normal;font-size:9.96259975px;font-family:cmmi10;-inkscape-font-specification:Cmmi10;writing-mode:lr-tb;fill:#000000;fill-opacity:1;fill-rule:nonzero;stroke:none"
                               x="0"
                               y="0"
                               id="tspan70">x</tspan></text>
<text
                             transform="matrix(1,0,0,-1,29.175257,89.404812)"
                             id="text72"><tspan
                               style="fill:#000000;fill-opacity:1;fill-rule:nonzero;stroke:none;font-family:cmr10;font-variant:normal;font-weight:normal;font-size:9.9626;writing-mode:lr;-inkscape-font-specification:Cmr10"
                               x="0"
                               y="0"
                               id="tspan74">)</tspan></text>
<text
                             transform="matrix(1,0,0,-1,41.968232,13.214005)"
                             id="text76"><tspan
                               style="font-size:9.96259975px;font-variant:normal;font-weight:normal;writing-mode:lr-tb;fill:#000000;fill-opacity:1;fill-rule:nonzero;stroke:none;font-family:cmmi10;-inkscape-font-specification:Cmmi10"
                               x="0"
                               y="0"
                               id="tspan78" /></text>
<text
                             transform="matrix(1,0,0,-1,47.03953,16.829412)"
                             id="text80"><tspan
                               style="font-size:6.97380018px;font-variant:normal;font-weight:normal;writing-mode:lr-tb;fill:#000000;fill-opacity:1;fill-rule:nonzero;stroke:none;font-family:DejaVu Sans;-inkscape-font-specification:DejaVuSans"
                               x="0"
                               y="0"
                               sodipodi:role="line"
                               id="tspan82" /></text>
<text
                             transform="matrix(1,0,0,-1,153.86983,17.770212)"
                             id="text84"
                             style="-inkscape-font-specification:cmmi10;font-family:cmmi10;font-weight:normal;font-style:normal;font-stretch:normal;font-variant:normal;">x</text>
</g></g><path
                         style="opacity:0.3;fill:#0000ff;fill-opacity:1"
                         d="m 7.1158605,89.091264 c 2.7566585,-0.633223 6.2375245,-2.38499 8.7969655,-4.427126 5.985881,-4.776037 11.089786,-14.450422 16.885691,-32.00661 1.425962,-4.319335 2.499237,-7.768674 5.177892,-16.64093 C 42.925772,19.623288 45.294843,12.775144 47.728633,7.8263649 49.7881,3.6387245 51.71163,1.3726006 53.424779,1.115698 55.778243,0.76277455 58.536844,4.2690534 61.371545,11.21631 l 0.572455,1.402969 0,38.30552 0,38.30552 -27.662442,-0.01247 C 17.161754,89.210124 6.8084342,89.161882 7.1158605,89.091264 z"
                         id="path3845"
                         inkscape:connector-curvature="0"
                         transform="matrix(0.8,0,0,-0.8,0,97.000001)" /><path
                         style="opacity:0.3;fill:#0000ff;fill-opacity:1"
                         d="m 63.316721,52.812761 0.0067,-36.417559 0.801241,2.297442 c 0.960146,2.753077 2.977164,9.180275 5.456183,17.386047 5.171746,17.118935 8.015072,25.301788 11.262507,32.412558 2.506303,5.487942 4.766956,9.013213 7.610581,11.867973 2.350315,2.359516 4.739389,3.63494 7.307685,3.901259 3.857308,0.399983 7.604837,-1.306791 11.577877,-5.273026 2.10124,-2.097633 3.44668,-3.75823 5.38506,-6.646438 3.13088,-4.665051 5.20545,-8.449577 11.43666,-20.863256 7.35356,-14.649583 9.35264,-18.029089 12.60471,-21.308573 1.45495,-1.467214 2.6227,-2.27171 3.93869,-2.713473 1.08145,-0.363031 1.84817,-0.398738 2.8665,-0.133496 2.94913,0.76815 5.8487,3.795527 9.51677,9.936239 2.03069,3.399568 2.9313,5.115723 7.59271,14.46823 4.59743,9.224121 5.90779,11.753927 7.81513,15.088049 5.9322,10.369741 10.96196,15.89942 17.75853,19.523587 2.01212,1.072929 4.30158,1.877309 7.32698,2.574259 l 1.30395,0.300387 -65.78755,0.0087 -65.787563,0.0087 0.0067,-36.417558 z"
                         id="path3847"
                         inkscape:connector-curvature="0"
                         transform="matrix(0.8,0,0,-0.8,0,97.000001)" /></g></g></g></g></g></g></g><text
           transform="matrix(1,0,0,-1,15.299721,92.891166)"
           id="text96"><tspan
             style="fill:#000000;fill-opacity:1;fill-rule:nonzero;stroke:none;font-family:DejaVu Sans;font-variant:normal;font-weight:normal;font-size:6.4;writing-mode:lr;-inkscape-font-specification:DejaVuSans"
             x="0"
             y="0"
             id="tspan98">~</tspan></text>
</g></g></g></svg>